<svg width="215" height="227" viewBox="0 0 215 227" fill="none" xmlns="http://www.w3.org/2000/svg">
<path d="M6.84992 186.331C7.18302 185.796 7.56063 185.466 7.98275 185.34C8.40932 185.216 8.86241 185.301 9.34203 185.595C9.80832 185.881 10.0849 186.24 10.1718 186.672C10.2587 187.104 10.1328 187.592 9.79423 188.136C9.46664 188.662 9.08458 188.99 8.64807 189.119C8.21876 189.247 7.76873 189.167 7.298 188.878C6.82282 188.587 6.54814 188.22 6.47394 187.778C6.4025 187.331 6.52783 186.849 6.84992 186.331Z" fill="white" fill-opacity="0.6"/>
<path d="M28.3186 191.85L31.2588 193.179C32.64 193.803 33.5445 194.46 33.9724 195.151C34.4003 195.841 34.41 196.632 34.0014 197.522C33.7189 198.137 33.312 198.567 32.7808 198.813C32.2565 199.056 31.6373 199.088 30.9232 198.908L30.8906 198.979C32.3472 199.963 32.7571 201.149 32.1203 202.535C31.6943 203.463 31.0462 204.045 30.1758 204.28C29.3103 204.518 28.3127 204.381 27.1831 203.871L23.5523 202.23L28.3186 191.85ZM27.488 196.841L29.4814 197.742C30.3357 198.128 31.0112 198.274 31.5079 198.178C32.0067 198.078 32.4017 197.71 32.693 197.076C32.9603 196.494 32.9438 195.981 32.6435 195.536C32.3454 195.087 31.7407 194.657 30.8294 194.245L29.0496 193.441L27.488 196.841ZM27.0185 197.864L25.2353 201.747L27.4066 202.729C28.2467 203.108 28.9518 203.233 29.5221 203.102C30.0992 202.968 30.5464 202.556 30.8637 201.865C31.1593 201.221 31.1583 200.649 30.8608 200.149C30.568 199.651 29.9778 199.201 29.0903 198.8L27.0185 197.864Z" fill="white" fill-opacity="0.6"/>
<path d="M45.2395 211.024L45.1523 207.13L40.8458 205.577L38.2727 208.51L37.0087 208.054L45.2035 198.819L46.2544 199.198L46.5329 211.49L45.2395 211.024ZM45.1742 205.868L45.1429 202.094C45.1353 201.615 45.1579 201.039 45.2105 200.366C44.9306 200.797 44.5872 201.257 44.1802 201.747L41.6981 204.614L45.1742 205.868Z" fill="white" fill-opacity="0.6"/>
<path d="M54.5538 208.92L53.2286 213.481L51.9517 213.116L55.1381 202.148L58.1502 203.009C59.4973 203.394 60.4165 203.936 60.9078 204.634C61.4041 205.334 61.5019 206.202 61.2012 207.237C60.7798 208.688 59.7589 209.458 58.1384 209.547L59.6885 215.328L58.1787 214.897L56.8448 209.575L54.5538 208.92ZM54.872 207.825L56.6222 208.325C57.5235 208.583 58.2361 208.594 58.76 208.359C59.2852 208.12 59.6517 207.642 59.8595 206.927C60.0702 206.202 60.0067 205.617 59.669 205.174C59.3364 204.732 58.6968 204.376 57.7504 204.106L56.0903 203.631L54.872 207.825Z" fill="white" fill-opacity="0.6"/>
<path d="M66.1433 205.078L69.3002 205.745C70.7831 206.058 71.8082 206.506 72.3756 207.089C72.943 207.672 73.1239 208.442 72.9185 209.399C72.7764 210.061 72.4729 210.57 72.008 210.924C71.5493 211.274 70.9521 211.438 70.2164 211.416L70.2 211.492C71.8347 212.141 72.4919 213.211 72.1716 214.703C71.9574 215.701 71.4513 216.409 70.6533 216.826C69.8604 217.244 68.8576 217.325 67.6448 217.069L63.7464 216.245L66.1433 205.078ZM66.4164 210.134L68.5567 210.586C69.474 210.78 70.1645 210.777 70.6283 210.577C71.0932 210.371 71.3988 209.927 71.5453 209.245C71.6797 208.619 71.5522 208.121 71.1628 207.751C70.7745 207.376 70.0911 207.085 69.1127 206.879L67.2017 206.475L66.4164 210.134ZM66.1804 211.234L65.2836 215.412L67.6149 215.905C68.5169 216.095 69.2318 216.065 69.7597 215.815C70.2937 215.56 70.6405 215.061 70.8001 214.318C70.9488 213.625 70.8236 213.066 70.4248 212.642C70.031 212.218 69.3576 211.905 68.4047 211.704L66.1804 211.234Z" fill="white" fill-opacity="0.6"/>
<path d="M85.0295 219.914L78.7182 219.072L80.2533 207.753L86.5645 208.596L86.4059 209.765L81.4112 209.098L80.9166 212.744L85.6094 213.371L85.4519 214.532L80.7591 213.906L80.1943 218.071L85.189 218.737L85.0295 219.914Z" fill="white" fill-opacity="0.6"/>
<path d="M94.4886 215.989L94.175 220.729L92.8497 220.642L93.6039 209.246L96.7301 209.449C98.1282 209.54 99.1421 209.875 99.772 210.454C100.407 211.033 100.689 211.86 100.618 212.936C100.518 214.443 99.6866 215.412 98.1235 215.842L100.88 221.165L99.3125 221.063L96.8664 216.144L94.4886 215.989ZM94.564 214.851L96.3804 214.969C97.3159 215.03 98.0142 214.89 98.4752 214.55C98.9365 214.204 99.1918 213.66 99.241 212.917C99.2909 212.163 99.1033 211.605 98.6784 211.244C98.2586 210.882 97.5576 210.67 96.5753 210.606L94.8524 210.493L94.564 214.851Z" fill="white" fill-opacity="0.6"/>
<path d="M116.302 211.848C116.324 212.206 116.44 212.544 116.648 212.859C116.855 213.17 117.2 213.54 117.681 213.969C118.327 213.537 118.769 213.149 119.008 212.806C119.252 212.456 119.361 212.066 119.333 211.635C119.308 211.234 119.152 210.918 118.866 210.685C118.585 210.447 118.22 210.342 117.773 210.37C117.311 210.399 116.942 210.547 116.667 210.815C116.397 211.082 116.275 211.427 116.302 211.848ZM118.026 219.896C119.279 219.818 120.293 219.353 121.069 218.501L117.452 215.408C116.897 215.797 116.508 216.117 116.283 216.365C116.059 216.609 115.898 216.867 115.8 217.139C115.703 217.412 115.665 217.717 115.686 218.054C115.725 218.663 115.956 219.133 116.379 219.467C116.807 219.795 117.356 219.938 118.026 219.896ZM114.347 218.169C114.304 217.494 114.445 216.885 114.771 216.343C115.102 215.8 115.718 215.234 116.62 214.646C116.147 214.18 115.822 213.824 115.645 213.58C115.472 213.335 115.331 213.077 115.22 212.808C115.109 212.538 115.044 212.255 115.025 211.959C114.975 211.179 115.191 210.555 115.673 210.087C116.155 209.618 116.85 209.355 117.76 209.299C118.602 209.246 119.279 209.423 119.79 209.829C120.301 210.23 120.581 210.818 120.63 211.593C120.665 212.149 120.521 212.675 120.198 213.17C119.874 213.66 119.32 214.172 118.534 214.706L121.901 217.556C122.172 217.216 122.379 216.825 122.524 216.382C122.673 215.935 122.79 215.45 122.877 214.928L124.187 214.846C123.928 216.355 123.467 217.516 122.804 218.33L125.279 220.453L123.494 220.564L121.963 219.267C121.385 219.856 120.786 220.29 120.167 220.569C119.548 220.848 118.849 221.011 118.069 221.06C116.951 221.13 116.066 220.909 115.412 220.396C114.764 219.884 114.409 219.141 114.347 218.169Z" fill="white" fill-opacity="0.6"/>
<path d="M148.188 213.817C148.386 214.803 148.183 215.642 147.578 216.335C146.974 217.028 146.058 217.495 144.832 217.738C143.503 218 142.447 218.031 141.663 217.83L141.411 216.574C141.91 216.677 142.441 216.732 143.005 216.737C143.57 216.742 144.117 216.692 144.649 216.587C145.517 216.416 146.138 216.123 146.512 215.709C146.885 215.29 147.012 214.787 146.894 214.2C146.817 213.812 146.674 213.511 146.466 213.297C146.263 213.077 145.956 212.899 145.546 212.763C145.141 212.625 144.539 212.497 143.74 212.379C142.622 212.212 141.788 211.918 141.236 211.496C140.689 211.073 140.332 210.451 140.167 209.629C139.994 208.766 140.18 208.015 140.727 207.376C141.273 206.737 142.08 206.312 143.148 206.101C144.262 205.881 145.327 205.883 146.345 206.106L146.166 207.32C145.163 207.115 144.225 207.099 143.351 207.271C142.662 207.408 142.152 207.662 141.823 208.035C141.495 208.408 141.383 208.858 141.489 209.384C141.567 209.772 141.702 210.077 141.896 210.299C142.088 210.515 142.374 210.695 142.753 210.838C143.136 210.975 143.703 211.099 144.453 211.211C145.713 211.397 146.61 211.687 147.146 212.08C147.687 212.472 148.034 213.051 148.188 213.817Z" fill="white" fill-opacity="0.6"/>
<path d="M164.717 212.676L163.437 213.031L161.979 207.858L156.182 209.466L157.641 214.639L156.361 214.995L153.261 204.001L154.541 203.646L155.86 208.323L161.656 206.715L160.338 202.038L161.618 201.683L164.717 212.676Z" fill="white" fill-opacity="0.6"/>
<path d="M178.281 201.843C178.915 203.558 178.978 205.065 178.469 206.364C177.966 207.661 176.941 208.591 175.394 209.153C173.813 209.728 172.414 209.691 171.197 209.042C169.983 208.386 169.051 207.179 168.401 205.42C167.756 203.676 167.688 202.169 168.195 200.898C168.701 199.622 169.747 198.696 171.333 198.119C172.875 197.558 174.259 197.609 175.487 198.271C176.714 198.933 177.646 200.124 178.281 201.843ZM169.728 204.954C170.264 206.405 170.979 207.395 171.874 207.923C172.772 208.444 173.811 208.49 174.99 208.061C176.18 207.629 176.94 206.928 177.271 205.96C177.601 204.992 177.498 203.78 176.96 202.324C176.427 200.883 175.72 199.901 174.839 199.38C173.96 198.851 172.929 198.802 171.744 199.233C170.555 199.666 169.789 200.371 169.445 201.35C169.104 202.321 169.199 203.523 169.728 204.954Z" fill="white" fill-opacity="0.6"/>
<path d="M188.339 194.742C188.824 195.791 188.837 196.763 188.379 197.659C187.923 198.547 187.027 199.295 185.69 199.904L184.467 200.46L186.353 204.538L185.144 205.088L180.35 194.72L183.045 193.494C185.643 192.312 187.407 192.728 188.339 194.742ZM183.989 199.425L185.077 198.93C186.148 198.442 186.843 197.917 187.162 197.354C187.482 196.791 187.465 196.129 187.113 195.368C186.796 194.682 186.335 194.274 185.73 194.144C185.124 194.013 184.345 194.164 183.392 194.598L182.041 195.213L183.989 199.425Z" fill="white" fill-opacity="0.6"/>
<path d="M204.332 188.671C203.999 188.136 203.87 187.653 203.945 187.222C204.025 186.789 204.304 186.425 204.784 186.131C205.25 185.845 205.698 185.76 206.126 185.877C206.554 185.993 206.938 186.323 207.276 186.867C207.604 187.393 207.728 187.879 207.65 188.324C207.573 188.762 207.299 189.125 206.828 189.414C206.353 189.705 205.899 189.784 205.467 189.652C205.032 189.515 204.654 189.188 204.332 188.671Z" fill="white" fill-opacity="0.6"/>
<path d="M196.431 147.974L194.852 151.191L193.274 147.974L194.19 147.507C193.396 147.236 192.826 146.49 192.823 145.613C189.076 144.752 186.283 141.424 186.283 137.449V136.891H185.832C185.209 136.891 184.705 136.391 184.705 135.774C184.705 135.157 185.209 134.656 185.832 134.656H203.872C204.495 134.656 205 135.157 205 135.774C205 136.391 204.495 136.891 203.872 136.891H203.196V137.449C203.196 141.344 200.515 144.618 196.882 145.557V145.605C196.882 146.486 196.31 147.235 195.514 147.507L196.431 147.974Z" fill="white"/>
<path d="M186.509 106.615L203.421 122.63V131.081H199.707L186.509 118.583V106.615Z" fill="#0088E0"/>
<path d="M186.509 91.3015H190.691L203.421 103.357V115.324L186.509 99.3091V91.3015Z" fill="#E24C3B"/>
<path d="M203.421 91.3015V96.0506L198.406 91.3015H203.421Z" fill="#0088E0"/>
<path d="M186.509 125.889V131.081H191.992L186.509 125.889Z" fill="#E24C3B"/>
<path d="M193.274 74.409L194.852 71.1914L196.431 74.409L195.514 74.876C196.308 75.1473 196.879 75.8925 196.882 76.7703C200.629 77.6307 203.421 80.9589 203.421 84.9333V85.4919H203.872C204.495 85.4919 205 85.9921 205 86.6092C205 87.2262 204.495 87.7264 203.872 87.7264H185.832C185.209 87.7264 184.705 87.2262 184.705 86.6092C184.705 85.9921 185.209 85.4919 185.832 85.4919H186.509V84.9333C186.509 81.039 189.19 77.7652 192.823 76.8253V76.7776C192.823 75.8966 193.394 75.148 194.19 74.876L193.274 74.409Z" fill="white"/>
<path d="M78.7255 80.0314H76.6055V93.4314H79.2055V94.1914H66.2055V93.4314H68.8055V66.9514H66.2055V66.1914H78.2855C81.7522 66.1914 84.2055 66.3781 85.6455 66.7514C87.1122 67.0981 88.1388 67.5247 88.7255 68.0314C90.0055 69.0714 90.6455 70.7247 90.6455 72.9914C90.6455 75.2581 90.0855 76.8847 88.9655 77.8714C87.8455 78.8314 86.1388 79.4047 83.8455 79.5914V79.7114C86.0055 80.0047 87.5122 80.6447 88.3655 81.6314C89.2188 82.6181 89.6455 84.2714 89.6455 86.5914V88.7114C89.6455 90.0981 89.7122 91.0314 89.8455 91.5114C90.0055 91.9914 90.3255 92.2314 90.8055 92.2314C91.2855 92.2314 91.6588 92.0181 91.9255 91.5914C92.2188 91.1381 92.4855 90.2047 92.7255 88.7914L93.4055 88.8714C93.1122 91.1381 92.5922 92.6581 91.8455 93.4314C91.1255 94.2047 89.6722 94.5914 87.4855 94.5914C85.2988 94.5914 83.7388 94.0847 82.8055 93.0714C81.8988 92.0314 81.4455 90.0981 81.4455 87.2714V84.3514C81.4455 82.8581 81.2455 81.7647 80.8455 81.0714C80.4722 80.3781 79.7655 80.0314 78.7255 80.0314ZM76.6055 66.9514V79.2714H77.8855C79.4055 79.2714 80.5255 78.8047 81.2455 77.8714C81.9922 76.9381 82.3655 75.4181 82.3655 73.3114V72.1514C82.3655 70.0447 82.0055 68.6581 81.2855 67.9914C80.5922 67.2981 79.4722 66.9514 77.9255 66.9514H76.6055ZM95.0783 66.1914H115.878L116.278 74.1114H115.558C114.438 71.4181 113.265 69.5781 112.038 68.5914C110.812 67.5781 109.012 67.0714 106.638 67.0714H105.238V79.4314H106.598C107.852 79.4314 108.905 78.9647 109.758 78.0314C110.612 77.0714 111.212 75.7914 111.558 74.1914H112.158V86.0314H111.478C110.998 84.0314 110.345 82.6047 109.518 81.7514C108.718 80.8981 107.612 80.4714 106.198 80.4714H105.238V93.3114H106.758C109.212 93.3114 111.292 92.5781 112.998 91.1114C114.732 89.6447 115.918 87.7647 116.558 85.4714H117.358L117.038 94.1914H95.0783V93.3114H97.4383V67.0714H95.0783V66.1914ZM147.759 79.7114C147.759 85.2047 146.213 89.0314 143.119 91.1914C140.266 93.1914 136.346 94.1914 131.359 94.1914H120.039V93.4314H122.679V66.9514H120.039V66.1914H132.399C137.519 66.1914 141.359 67.2447 143.919 69.3514C146.479 71.4314 147.759 74.8847 147.759 79.7114ZM130.479 93.4314H131.999C134.693 93.4314 136.613 92.4847 137.759 90.5914C138.933 88.6714 139.519 85.4714 139.519 80.9914V78.6714C139.519 72.6714 138.373 69.0581 136.079 67.8314C134.986 67.2447 133.439 66.9514 131.439 66.9514H130.479V93.4314ZM111.655 135.231C112.961 135.231 113.961 134.605 114.655 133.351C115.375 132.098 115.735 130.551 115.735 128.711C115.735 126.871 115.028 125.005 113.615 123.111C111.588 125.431 108.801 126.591 105.255 126.591C101.708 126.591 98.8814 125.991 96.7747 124.791C94.6947 123.591 93.6547 121.698 93.6547 119.111C93.6547 117.325 94.1347 115.885 95.0947 114.791C96.0547 113.698 97.6681 112.898 99.9347 112.391C97.5881 110.258 96.4147 107.938 96.4147 105.431C96.4147 102.898 97.2947 100.991 99.0547 99.7114C100.841 98.4047 103.055 97.7514 105.695 97.7514C108.335 97.7514 110.308 98.2314 111.615 99.1914C112.948 100.151 113.615 101.445 113.615 103.071C113.615 105.898 111.468 108.058 107.175 109.551C107.708 109.898 108.681 110.511 110.095 111.391C113.055 113.311 115.148 114.858 116.375 116.031C116.775 114.138 117.001 112.191 117.055 110.191H113.895V109.391H120.855V110.191H118.055C118.001 112.698 117.748 114.951 117.295 116.951C118.441 118.231 119.308 119.458 119.895 120.631C120.481 121.805 120.775 123.285 120.775 125.071C120.775 127.951 119.761 130.525 117.735 132.791C115.708 135.058 113.401 136.191 110.815 136.191C109.081 136.191 107.735 135.831 106.775 135.111C105.815 134.391 105.335 133.471 105.335 132.351C105.335 131.231 105.641 130.351 106.255 129.711C106.895 129.098 107.695 128.791 108.655 128.791C110.788 128.791 111.855 129.751 111.855 131.671C111.855 132.071 111.775 132.551 111.615 133.111H110.215C109.735 134.525 110.215 135.231 111.655 135.231ZM106.215 125.551C109.041 125.551 111.281 124.458 112.935 122.271C111.708 120.991 109.988 119.605 107.775 118.111C103.961 115.605 101.535 113.898 100.495 112.991C100.095 113.845 99.8947 115.578 99.8947 118.191C99.8947 120.805 100.415 122.685 101.455 123.831C102.495 124.978 104.081 125.551 106.215 125.551ZM105.495 98.5914C104.481 98.5914 103.615 98.9114 102.895 99.5514C102.175 100.165 101.815 101.151 101.815 102.511C101.815 103.871 102.135 104.991 102.775 105.871C103.415 106.751 104.641 107.818 106.455 109.071C107.575 108.485 108.268 107.778 108.535 106.951C108.828 106.125 108.975 104.911 108.975 103.311C108.975 100.165 107.815 98.5914 105.495 98.5914ZM52.2072 131.191H64.1672C67.8739 131.191 70.6472 131.698 72.4872 132.711C74.3539 133.698 75.2872 135.378 75.2872 137.751C75.2872 141.405 73.0872 143.591 68.6872 144.311V144.391C74.0206 145.058 76.6872 147.378 76.6872 151.351C76.6872 154.258 75.5939 156.298 73.4072 157.471C71.2206 158.618 68.0739 159.191 63.9672 159.191H52.2072V158.431H54.8072V131.951H52.2072V131.191ZM62.6072 145.031V158.431H64.4872C65.9539 158.431 66.9806 157.925 67.5672 156.911C68.1539 155.898 68.4472 154.405 68.4472 152.431V150.311C68.4472 148.551 68.0872 147.231 67.3672 146.351C66.6472 145.471 65.3672 145.031 63.5272 145.031H62.6072ZM62.6072 131.951V144.271H63.6472C65.0339 144.271 65.9939 143.858 66.5272 143.031C67.0872 142.178 67.3672 140.885 67.3672 139.151V137.271C67.3672 135.298 67.1272 133.925 66.6472 133.151C66.1672 132.351 65.2472 131.951 63.8872 131.951H62.6072ZM78.5744 131.191H92.9744V132.071H88.7344V158.311H90.1744C92.4411 158.311 94.2411 157.618 95.5744 156.231C96.9344 154.845 98.3078 152.711 99.6944 149.831H100.534L99.7744 159.191H78.5744V158.311H80.9344V132.071H78.5744V131.191ZM111.621 150.671C111.621 153.125 112.035 155.005 112.861 156.311C113.715 157.618 115.235 158.271 117.421 158.271C119.608 158.271 121.288 157.591 122.461 156.231C123.635 154.871 124.221 152.805 124.221 150.031V131.951H121.621V131.191H127.461V131.951H125.261V149.751C125.261 153.058 124.528 155.525 123.061 157.151C121.595 158.778 118.995 159.591 115.261 159.591C111.555 159.591 108.715 158.818 106.741 157.271C104.795 155.725 103.821 153.071 103.821 149.311V131.951H101.621V131.191H114.221V131.951H111.621V150.671ZM128.926 131.191H149.726L150.126 139.111H149.406C148.286 136.418 147.113 134.578 145.886 133.591C144.659 132.578 142.859 132.071 140.486 132.071H139.086V144.431H140.446C141.699 144.431 142.753 143.965 143.606 143.031C144.459 142.071 145.059 140.791 145.406 139.191H146.006V151.031H145.326C144.846 149.031 144.193 147.605 143.366 146.751C142.566 145.898 141.459 145.471 140.046 145.471H139.086V158.311H140.606C143.059 158.311 145.139 157.578 146.846 156.111C148.579 154.645 149.766 152.765 150.406 150.471H151.206L150.886 159.191H128.926V158.311H131.286V132.071H128.926V131.191ZM158.287 159.591C157.14 159.591 156.274 159.258 155.687 158.591C155.127 157.898 154.847 157.071 154.847 156.111C154.847 155.125 155.14 154.298 155.727 153.631C156.34 152.965 157.194 152.631 158.287 152.631C159.38 152.631 160.247 152.911 160.887 153.471C161.527 154.031 161.847 154.871 161.847 155.991C161.847 157.111 161.54 157.991 160.927 158.631C160.34 159.271 159.46 159.591 158.287 159.591Z" fill="white"/>
<path d="M21.7261 147.974L20.1476 151.191L18.5691 147.974L19.4855 147.507C18.6919 147.236 18.1212 146.49 18.1181 145.613C14.3711 144.752 11.5785 141.424 11.5785 137.449V136.891H11.1274C10.5047 136.891 9.99993 136.391 9.99993 135.774C9.99993 135.157 10.5047 134.656 11.1274 134.656H29.1678C29.7905 134.656 30.2953 135.157 30.2953 135.774C30.2953 136.391 29.7905 136.891 29.1678 136.891H28.4913V137.449C28.4913 141.344 25.8101 144.618 22.1771 145.557V145.605C22.1771 146.486 21.6055 147.235 20.8098 147.507L21.7261 147.974Z" fill="white"/>
<path d="M11.8041 106.615L28.7169 122.63V131.081H25.0029L11.8041 118.583V106.615Z" fill="#0088E0"/>
<path d="M11.8041 91.3015H15.986L28.7169 103.357V115.324L11.8041 99.3091V91.3015Z" fill="#E24C3B"/>
<path d="M28.7168 91.3015V96.0506L23.7015 91.3015H28.7168Z" fill="#0088E0"/>
<path d="M11.8041 125.889V131.081H17.2873L11.8041 125.889Z" fill="#E24C3B"/>
<path d="M18.5692 74.409L20.1477 71.1914L21.7262 74.409L20.8098 74.876C21.6034 75.1473 22.1741 75.8925 22.1772 76.7703C25.9242 77.6307 28.7168 80.9589 28.7168 84.9333V85.4919H29.1678C29.7906 85.4919 30.2954 85.9921 30.2954 86.6092C30.2954 87.2262 29.7906 87.7264 29.1678 87.7264H11.1275C10.5048 87.7264 10 87.2262 10 86.6092C10 85.9921 10.5048 85.4919 11.1275 85.4919H11.804V84.9333C11.804 81.039 14.4852 77.7652 18.1181 76.8253V76.7776C18.1181 75.8966 18.6898 75.148 19.4855 74.876L18.5692 74.409Z" fill="white"/>
<path d="M22.412 38.1243C22.053 37.6063 21.9002 37.13 21.9538 36.6953C22.0116 36.2576 22.2724 35.8796 22.7362 35.5613C23.1871 35.2518 23.629 35.1443 24.0621 35.2388C24.4951 35.3332 24.8941 35.6437 25.259 36.1702C25.6121 36.6796 25.7606 37.1589 25.7044 37.608C25.6495 38.05 25.3945 38.4272 24.9393 38.7396C24.4798 39.0549 24.0312 39.1575 23.5936 39.0473C23.153 38.9327 22.7591 38.6251 22.412 38.1243Z" fill="white" fill-opacity="0.6"/>
<path d="M48.5452 29.7819L42.8277 32.5839L37.7612 22.3472L43.4787 19.5453L44.002 20.6026L39.4771 22.8201L41.1093 26.1179L45.3606 24.0345L45.8804 25.0848L41.6291 27.1682L43.4936 30.9352L48.0185 28.7177L48.5452 29.7819Z" fill="white" fill-opacity="0.6"/>
<path d="M59.1527 22.2068C59.5195 23.1427 59.4656 24.0044 58.9911 24.7919C58.5165 25.5794 57.6966 26.1993 56.5312 26.6515C55.2688 27.1413 54.234 27.3557 53.4269 27.2946L52.9594 26.1017C53.4686 26.1164 54.0015 26.0772 54.558 25.9842C55.1145 25.8911 55.6452 25.7466 56.1502 25.5507C56.9757 25.2304 57.5364 24.834 57.8323 24.3617C58.1264 23.8844 58.1641 23.367 57.9456 22.8093C57.8011 22.4408 57.6081 22.1693 57.3663 21.995C57.1275 21.8139 56.7944 21.6917 56.3669 21.6286C55.9442 21.5635 55.329 21.5425 54.5213 21.5654C53.392 21.5958 52.5187 21.4514 51.9014 21.1323C51.2889 20.8113 50.8297 20.2604 50.5237 19.4797C50.2025 18.6601 50.2553 17.8883 50.6819 17.1641C51.1085 16.4399 51.8292 15.8809 52.844 15.4871C53.9026 15.0763 54.9521 14.8925 55.9927 14.9357L56.0286 16.162C55.0053 16.1345 54.0785 16.2818 53.2482 16.604C52.5927 16.8584 52.1355 17.1978 51.8767 17.6222C51.6179 18.0467 51.5864 18.5086 51.7821 19.0081C51.9266 19.3767 52.1133 19.6534 52.3424 19.8382C52.5696 20.0182 52.8824 20.1455 53.2807 20.2199C53.6821 20.2877 54.2619 20.3113 55.0203 20.2907C56.2929 20.255 57.2273 20.3841 57.8235 20.6779C58.4246 20.9698 58.8676 21.4794 59.1527 22.2068Z" fill="white" fill-opacity="0.6"/>
<path d="M68.6148 22.4281L67.3437 22.8132L64.347 13.0192L60.8852 14.068L60.54 12.94L68.7347 10.4573L69.0798 11.5853L65.618 12.6341L68.6148 22.4281Z" fill="white" fill-opacity="0.6"/>
<path d="M80.9543 19.4713L74.7338 20.8302L72.2731 9.67653L78.4936 8.31768L78.7478 9.46967L73.8248 10.5451L74.6175 14.1384L79.2428 13.128L79.4953 14.2723L74.87 15.2827L75.7755 19.3871L80.6985 18.3117L80.9543 19.4713Z" fill="white" fill-opacity="0.6"/>
<path d="M95.3839 11.5717C95.6182 13.4425 95.2883 14.9372 94.3942 16.0556C93.5047 17.1683 92.1063 17.8429 90.1991 18.0793L87.059 18.4686L85.6401 7.13516L89.1135 6.70458C90.8761 6.48609 92.307 6.80466 93.4062 7.66031C94.5053 8.51596 95.1646 9.81976 95.3839 11.5717ZM93.9942 11.7912C93.8091 10.3132 93.2976 9.24561 92.4594 8.58852C91.6265 7.93079 90.4786 7.69259 89.0159 7.87392L87.1008 8.11131L88.2344 17.1656L89.8393 16.9667C91.4106 16.7719 92.5435 16.2405 93.2379 15.3724C93.9317 14.4992 94.1838 13.3054 93.9942 11.7912Z" fill="white" fill-opacity="0.6"/>
<path d="M108.631 13.3159L108.658 12.1287L112.493 12.2136L112.466 13.4008L108.631 13.3159Z" fill="white" fill-opacity="0.6"/>
<path d="M134.824 19.6262L127.421 18.3737L127.609 17.2725L131.084 14.794C132.144 14.0331 132.851 13.4819 133.206 13.1404C133.56 12.7989 133.841 12.4555 134.048 12.1102C134.255 11.7648 134.394 11.3791 134.467 10.953C134.57 10.3523 134.469 9.84661 134.164 9.43581C133.86 9.01988 133.384 8.75717 132.737 8.64769C132.27 8.56862 131.812 8.57046 131.365 8.65323C130.923 8.73686 130.41 8.93802 129.827 9.25671L129.298 8.27182C130.483 7.58484 131.686 7.34475 132.909 7.55156C133.966 7.73055 134.749 8.14298 135.257 8.78884C135.766 9.42956 135.942 10.2068 135.786 11.1207C135.664 11.8343 135.343 12.5063 134.823 13.1368C134.303 13.7672 133.403 14.5234 132.121 15.4053L129.244 17.3986L129.234 17.4602L135.027 18.4403L134.824 19.6262Z" fill="white" fill-opacity="0.6"/>
<path d="M149.453 17.3274C148.936 19.2325 148.248 20.5739 147.389 21.3516C146.536 22.1307 145.49 22.354 144.253 22.0215C143.066 21.7025 142.293 20.9799 141.935 19.8535C141.578 18.7222 141.652 17.2266 142.157 15.3668C142.678 13.4467 143.364 12.1021 144.215 11.3331C145.066 10.564 146.105 10.3444 147.333 10.6742C148.53 10.9959 149.306 11.7249 149.661 12.8613C150.022 13.999 149.952 15.4877 149.453 17.3274ZM143.425 15.7074C142.99 17.3109 142.861 18.5302 143.039 19.3655C143.218 20.1957 143.721 20.7216 144.546 20.9433C145.381 21.1677 146.084 20.9605 146.657 20.3216C147.236 19.679 147.741 18.5661 148.17 16.9827C148.6 15.3994 148.726 14.1901 148.548 13.3549C148.376 12.5159 147.873 11.9843 147.038 11.7599C146.213 11.5382 145.513 11.7411 144.938 12.3686C144.364 12.991 143.86 14.104 143.425 15.7074Z" fill="white" fill-opacity="0.6"/>
<path d="M160.596 27.272L153.563 24.6449L153.957 23.5996L157.842 21.8232C159.028 21.2766 159.828 20.8691 160.241 20.6008C160.654 20.3325 160.994 20.0485 161.263 19.7486C161.532 19.4488 161.743 19.0966 161.896 18.6922C162.111 18.122 162.108 17.6066 161.886 17.1458C161.667 16.6802 161.25 16.3325 160.635 16.1029C160.191 15.937 159.741 15.8525 159.286 15.8492C158.836 15.8478 158.294 15.9485 157.661 16.1512L157.328 15.0846C158.623 14.6341 159.851 14.6257 161.012 15.0594C162.017 15.4349 162.707 15.9875 163.083 16.7173C163.461 17.4422 163.486 18.2383 163.159 19.1058C162.904 19.7831 162.461 20.3821 161.83 20.9027C161.199 21.4233 160.171 21.9953 158.744 22.6189L155.539 24.0321L155.517 24.0905L161.021 26.1463L160.596 27.272Z" fill="white" fill-opacity="0.6"/>
<path d="M170.388 31.7071L169.25 31.1537L172.838 23.8463C173.136 23.2386 173.437 22.6726 173.741 22.1485C173.594 22.1989 173.434 22.2482 173.259 22.2965C173.085 22.3449 172.303 22.5297 170.915 22.8511L170.69 21.751L174.438 20.9761L175.422 21.4543L170.388 31.7071Z" fill="white" fill-opacity="0.6"/>
<path d="M189.421 35.9507C189.78 35.4328 190.173 35.1215 190.601 35.0169C191.033 34.9152 191.48 35.0235 191.944 35.3418C192.395 35.6513 192.653 36.0242 192.718 36.4605C192.783 36.8968 192.633 37.3783 192.268 37.9048C191.915 38.4141 191.518 38.7225 191.076 38.8298C190.641 38.9357 190.196 38.8325 189.741 38.5201C189.282 38.2047 189.026 37.8239 188.974 37.3777C188.925 36.9272 189.074 36.4515 189.421 35.9507Z" fill="white" fill-opacity="0.6"/>
</svg>
